# xmcd CD database file
#
# Track frame offsets:
#	150
#	18110
#	35880
#
# Disc length: 703 seconds
#
# Revision: 2
# Processed by: cddbd v1.5.2PL0 Copyright (c) Steve Scherf et al.
# Submitted via: CDex 1.70beta2
#
DISCID=1c02bd03
DTITLE=PHIL CARMEN - ONE FOOT IN HEAVEN
DYEAR=1993
DGENRE=Rock
TTITLE0=One Foot In Heaven (single version)
TTITLE1=Baby It's a Long Way
TTITLE2=One Foot In Heaven
EXTD=YEAR: 1993
EXTT0=
EXTT1=
EXTT2=
PLAYORDER=
